<?xml version="1.0" ?><svg enable-background="new 0 0 154.0424 200.442" id="zen" version="1.1" viewBox="0 0 154.0424 200.442" xml:space="preserve" xmlns="http://www.w3.org/2000/svg" xmlns:xlink="http://www.w3.org/1999/xlink"><path d="M152.6962,153.3953c-0.3243-1.2853-1.258-2.328-2.5-2.7853c-1.246-0.4587-2.6368-0.2675-3.7108,0.5  c-19.0508,13.6329-38.7152,2.8225-59.5352-8.6151c-11.3868-6.2556-23.094-12.6876-35.1292-15.2656  c9.84-10.908,20.3949-22.1504,30.6524-33.0724c12.004-12.7812,24.414-26,36.0276-39.0332c1.6992-1.908,3.4844-3.7928,5.2812-5.6892  c10.3516-10.928,22.082-23.3144,19.5897-43.0765c-0.1365-1.0875-0.7149-2.0699-1.5937-2.7203  c-0.8828-0.6484-1.9924-0.9084-3.0703-0.7188c-29.3085,5.1776-71.2889,7.6228-93.168-2.5452  c-1.5625-0.7264-3.4101-0.3728-4.5897,0.8772c-8.4924,8.9648-17.8636,20.6544-14.9456,31.58  C29.3874,45.442,51.575,44.8445,73.0399,44.2881c0.9647-0.0256,1.9179-0.0508,2.8595-0.0744  c-14.3048,18.924-31.4104,39.4608-50.9456,61.1544c-1.8044,2.0056-3.6952,3.9492-5.5856,5.8924  C8.751,122.19-3.2841,134.5769,0.825,157.9069c0.3712,2.1212,2.3596,3.5764,4.4924,3.2676  c21.32-2.9845,41.3476,1.3652,59.5508,12.9456c3.8084,2.4276,7.488,5.1424,11.3828,8.0196  c9.0272,6.66,18.3632,13.5488,29.488,16.6912c3.8284,1.082,7.676,1.6111,11.4416,1.6111c9.8164,0,19.0896-3.5975,26.0936-10.3903  C152.7742,180.8369,156.2079,167.4773,152.6962,153.3953z M137.7039,184.3073c-7.6173,7.3888-18.7501,9.9436-29.7929,6.8244  c-9.7188-2.746-18.4572-9.1952-26.91-15.4297c-3.832-2.8283-7.7971-5.7539-11.836-8.3299  c-15.8088-10.0568-32.8792-15.1172-50.914-15.1172c-3.3244,0-6.68,0.1716-10.0664,0.5156  c-1.6447-16.8245,7.0076-25.7308,16.9216-35.9336c1.9612-2.0156,3.918-4.0332,5.7932-6.1152  c21.9688-24.3968,40.906-47.3637,56.2888-68.264c0.8948-1.2148,1.0277-2.83,0.3477-4.1757  c-0.6797-1.3455-2.0625-2.1951-3.5701-2.1951c-3.4179,0-7.1992,0.0996-11.1368,0.2028  c-13.9531,0.3692-37.3476,0.9904-39.0976-5.5252c-1.844-6.914,6.418-16.8456,11.1208-21.9748  c27.844,11.2132,74.1212,5.3928,90.8557,2.7403c0.0431,13.6369-8.6133,22.7773-17.7345,32.4045  c-1.8516,1.9552-3.6912,3.8984-5.4492,5.8692c-11.5388,12.9528-23.914,26.1328-35.8828,38.8788  c-12.0468,12.83-24.5076,26.0955-35.7852,38.8008c-1.0156,1.1444-1.2888,2.7676-0.7068,4.1816  c0.586,1.414,1.9256,2.3731,3.4528,2.4668c12.9728,0.8048,26.4572,8.2108,39.4964,15.3748  c20.41,11.2132,41.4493,22.766,62.7888,11.3868C146.7274,170.0049,143.8682,178.3309,137.7039,184.3073z"/></svg>